<svg xmlns="http://www.w3.org/2000/svg" viewBox="0 0 1492.09 751.2">
  <g fill="#fff">
    <polygon points="559.7 363.09 656.68 177.1 748.42 0 748.61 370.09 559.7 363.09"/>
    <polygon points="886.59 375.56 776.98 370.94 777.08 156.5 852.04 305.75 886.59 375.56"/>
    <polygon points="760.73 532.21 718.4 623.05 658.33 477.93 686.37 477.95 720.49 565 760.81 473.79 800.87 564.03 836.18 477.91 863.52 478.14 802.13 623.27 760.73 532.21"/>
    <polygon points="1152.85 622.92 1051.24 530 1050.99 619.1 1025.74 618.93 1025.94 473.06 1127.59 566.71 1127.79 478 1153.08 477.8 1152.85 622.92"/>
    <path d="M1345.04 547.74c.8 39.17-27.36 70.51-65.94 70.89l-54.33.55-.11-141.28 50.57.22c18.39.08 35.67 6.83 49.13 18.82 13.93 13.37 20.26 30.64 20.67 50.8Zm-25.83-2.81c-1.58-24.3-17.67-42.65-42.02-43.04l-26.88-.42.02 94.83 26.59-.56c27.27-.57 44.05-23.77 42.29-50.82Z"/>
    <path d="m540.93 618.7-30.47.47-40.07-57.08-11.79.03-.13 57.01-25.53-.12.03-141.18 45.99.06 20.04 2.58c20.04 5.24 31.39 23 29.35 43.46-1.77 17.78-14.16 31.48-32.31 34.1l44.88 60.66Zm-38.22-99.19c-.18-9.83-6.62-18.2-16.89-18.46l-26.98-.68.08 41.01 25.15-.79c11.47-.36 18.84-10.11 18.64-21.08Z"/>
    <path d="m223.92 589.78-59.43-.11-13.18 29.38-27.22.09 44.07-91.6 26.43-54.33 23.96 49.07 45.9 96.76-27.4.02-13.15-29.28Zm-9.98-21.51-19.67-43.64-19.65 43.6 39.32.04Z"/>
    <path d="M1492.05 582.56c-.61 15.55-8.13 28.14-21.79 34.44-24.41 11.26-53.53 5.51-72.12-15.33l15.82-18.68c8.88 12.12 23.26 18.15 38.02 15.64 7.91-1.34 13.55-6.66 14.63-13.71 1.08-7.03-1.96-14.74-8.96-18.53l-33.61-18.21c-13.72-7.43-20.51-21.34-19.33-36.4 1.09-13.85 9.61-26.79 23.76-32.4 20.62-8.18 43.63-3.9 60.5 12l-14.3 18.92c-8.66-8.66-18.66-13.21-29.84-11.8-7.49.94-13.23 5.72-14.69 12.33-1.54 6.98 1.87 14.29 8.94 18.01l32.07 16.87c13.77 7.24 21.53 20.59 20.88 36.86Z"/>
    <polygon points="76.73 536.7 76.95 559.69 25.32 559.85 25.21 618.99 0 619.06 0 477.86 86.68 477.79 86.69 501.31 25.3 501.34 25.31 536.74 76.73 536.7"/>
    <rect x="269.76" y="535.46" width="141.3" height="25.91" transform="rotate(-89.98 340.41 548.41)"/>
    <rect x="924.52" y="477.76" width="25.69" height="141.32"/>
    <rect x="464.17" y="713.24" width="185.58" height="7.54"/>
    <rect x="789.15" y="713.25" width="185.87" height="7.51"/>
    <path d="m719.72 682.34 34.37 34.7-34.48 34.16-34.37-34.7 34.48-34.16Zm.03 56.54 22.28-22.03-22.3-22.55-22.08 22.74 22.09 21.84Z"/>
  </g>
</svg>
