<svg xmlns="http://www.w3.org/2000/svg" viewBox="0 0 856.66 100">
  <g fill="#fff">
    <polygon points="436.59 41.02 412.77 92.13 378.98 10.48 394.75 10.5 413.95 59.48 436.64 8.15 459.18 58.92 479.04 10.47 494.43 10.6 459.89 92.26 436.59 41.02"/>
    <polygon points="657.21 92.06 600.04 39.78 599.9 89.91 585.69 89.82 585.81 7.74 643 60.44 643.11 10.52 657.34 10.41 657.21 92.06"/>
    <path d="M765.34 49.76c.45 22.04-15.39 39.67-37.1 39.89l-30.57.31-.06-79.49 28.45.12c10.35.04 20.07 3.84 27.64 10.59 7.84 7.52 11.4 17.24 11.63 28.58Zm-14.53-1.58c-.89-13.67-9.94-24-23.64-24.21l-15.12-.24v53.35l14.97-.31c15.34-.32 24.79-13.37 23.8-28.59Z"/>
    <path d="m312.92 89.68-17.14.26-22.54-32.12-6.63.02-.07 32.08-14.36-.07.02-79.43 25.88.04 11.28 1.45c11.28 2.95 17.66 12.94 16.51 24.45-1 10-7.97 17.71-18.18 19.19l25.25 34.13Zm-21.5-55.8c-.1-5.53-3.72-10.24-9.5-10.39l-15.18-.38.04 23.08 14.15-.45c6.45-.2 10.6-5.69 10.49-11.86Z"/>
    <path d="m134.57 73.42-33.44-.06-7.41 16.53-15.32.05 24.8-51.54 14.87-30.57 13.48 27.61 25.83 54.44h-15.41l-7.4-16.46Zm-5.62-12.11-11.07-24.55-11.06 24.53 22.12.02Z"/>
    <path d="M848.05 69.35c-.34 8.75-4.57 15.83-12.26 19.38-13.74 6.33-30.12 3.1-40.58-8.62l8.9-10.51c4.99 6.82 13.09 10.21 21.39 8.8 4.45-.76 7.62-3.75 8.23-7.71s-1.11-8.29-5.04-10.43l-18.91-10.25c-7.72-4.18-11.54-12-10.88-20.48.61-7.79 5.41-15.08 13.37-18.23 11.6-4.6 24.55-2.2 34.04 6.75l-8.05 10.64c-4.87-4.87-10.5-7.43-16.79-6.64-4.21.53-7.44 2.72-8.26 6.93-.87 3.93 1.05 8.04 5.03 10.14l18.04 9.49c7.75 4.08 12.11 11.58 11.75 20.74Z"/>
    <polygon points="51.76 43.55 51.88 56.48 22.83 56.58 22.77 89.85 8.59 89.89 8.58 10.45 57.36 10.4 57.36 23.64 22.82 23.66 22.82 43.57 51.76 43.55"/>
    <rect x="160.36" y="42.85" width="79.5" height="14.58" transform="rotate(-89.98 200.11 50.14)"/>
    <rect x="528.74" y="10.39" width="14.45" height="79.51"/>
  </g>
</svg>
